<svg height="983.41" width="984.62" xmlns="http://www.w3.org/2000/svg">
<polygon points="979.97,501.17 979.97,513.46 984.53,513.46 984.53,525.49 979.43,525.49 979.43,537.88 981.9,537.88 981.9,549.48 975.02,549.48 975.02,561.54 973.95,561.54 973.95,574.33 977.39,574.33 977.39,585.96 972.92,585.96 972.92,598.37 972.81,598.37 972.81,610.17 969.53,610.17 969.53,620.54 960.89,620.54 960.89,634.09 964.3,634.09 964.3,643.84 954.54,643.84 954.54,657.51 957.14,657.51 957.14,668.04 950.33,668.04 950.33,679.76 946.84,679.76 946.84,690.11 940.03,690.11 940.03,701.98 936.76,701.98 936.76,713.9 933.38,713.9 933.38,723.48 925.29,723.48 925.29,734.08 919.31,734.08 919.31,742.57 909.77,742.57 909.77,753.71 904.82,753.71 904.82,762.9 896.78,762.9 896.78,776.59 895.32,776.59 895.32,786.47 888.13,786.47 888.13,795.59 879.93,795.59 879.93,806.78 874.36,806.78 874.36,814.8 864.88,814.8 864.88,825.09 858.05,825.09 858.05,833.63 849.26,833.63 849.26,840.16 838.49,840.16 838.49,848.37 829.52,848.37 829.52,857.51 821.41,857.51 821.41,861.48 808.78,861.48 808.78,869.55 799.82,869.55 799.82,879.12 791.98,879.12 791.98,886.2 782.13,886.2 782.13,897.81 775.44,897.81 775.44,901.34 763.09,901.34 763.09,908.79 753.41,908.79 753.41,916.49 743.8,916.49 743.8,922.07 732.91,922.07 732.91,923.61 719.95,923.61 719.95,932.45 710.81,932.45 710.81,939.67 700.71,939.67 700.71,945.24 689.77,945.24 689.77,949.43 678.24,949.43 678.24,951.46 665.94,951.46 665.94,954.98 654.27,954.98 654.27,957.82 642.4,957.82 642.4,959.18 630.17,959.18 630.17,969.32 620.28,969.32 620.28,967.51 607.27,967.51 607.27,968.32 595.04,968.32 595.04,974.47 583.83,974.47 583.83,973.39 571.33,973.39 571.33,978.62 559.76,978.62 559.76,975.22 547.14,975.22 547.14,983.41 535.61,983.41 535.61,981.59 523.23,981.59 523.23,978.65 510.95,978.65 510.95,983.19 498.81,983.19 498.81,974.97 486.79,974.97 486.79,976.46 474.66,976.46 474.66,979.37 462.3,979.37 462.3,973.96 450.62,973.96 450.62,974.03 438.44,974.03 438.44,970.29 426.77,970.29 426.77,976.68 413.35,976.68 413.35,969.99 402.21,969.99 402.21,964.13 391.09,964.13 391.09,961.33 379.34,961.33 379.34,959.5 367.29,959.5 367.29,959.17 354.69,959.17 354.69,949.17 345.23,949.17 345.23,951.02 331.69,951.02 331.69,942.46 321.99,942.46 321.99,945.03 307.72,945.03 307.72,934.36 299.12,934.36 299.12,926.1 289.68,926.1 289.68,921.21 278.65,921.21 278.65,920.36 265.32,920.36 265.32,910.1 257.22,910.1 257.22,903.74 246.96,903.74 246.96,903.27 232.79,903.27 232.79,889.41 227.53,889.41 227.53,882.21 217.88,882.21 217.88,875.8 207.62,875.8 207.62,871.1 195.88,871.1 195.88,863.06 186.76,863.06 186.76,857.43 175.47,857.43 175.47,846.02 169.45,846.02 169.45,836.41 161.93,836.41 161.93,832.83 148.13,832.83 148.13,819.18 144.96,819.18 144.96,809.18 138.04,809.18 138.04,802.92 126.62,802.92 126.62,791.15 121.95,791.15 121.95,784.4 110.68,784.4 110.68,771.49 107.87,771.49 107.87,761.99 100.33,761.99 100.33,751.55 94.2,751.55 94.2,743.15 84.6,743.15 84.6,732.26 79.1,732.26 79.1,721.94 72.55,721.94 72.55,710.18 68.82,710.18 68.82,697.49 67.36,697.49 67.36,688.82 56.98,688.82 56.98,677.27 53.01,677.27 53.01,665.85 48.77,665.85 48.77,652.81 49.3,652.81 49.3,643.95 37.22,643.95 37.22,632.24 33.47,632.24 33.47,618.27 38.53,618.27 38.53,606.51 35.81,606.51 35.81,594.63 33.71,594.63 33.71,583.78 25.85,583.78 25.85,571.01 28.7,571.01 28.7,559.46 23.77,559.46 23.77,547.27 23.52,547.27 23.52,535.6 16.81,535.6 16.81,523.13 20.44,523.13 20.44,510.94 21.72,510.94 21.72,501.1 948.65,501.1 948.65,486.56 16.52,486.56 16.52,474.26 16.13,474.26 16.13,462.76 26.43,462.76 26.43,449.9 19.15,449.9 19.15,438.12 23.48,438.12 23.48,425.65 22.53,425.65 22.53,414.51 29.71,414.51 29.71,402.08 29.41,402.08 29.41,390.37 32.78,390.37 32.78,379.06 37.62,379.06 37.62,367.93 42.7,367.93 42.7,356.11 45.3,356.11 45.3,343.28 45.16,343.28 45.16,331.71 49.01,331.71 49.01,321.69 56.79,321.69 56.79,310.86 62.24,310.86 62.24,299.0 65.37,299.0 65.37,288.19 70.87,288.19 70.87,278.37 78.24,278.37 78.24,265.71 80.32,265.71 80.32,255.6 87.16,255.6 87.16,243.05 90.02,243.05 90.02,232.28 95.95,232.28 95.95,227.55 110.6,227.55 110.6,214.99 113.87,214.99 113.87,206.15 122.3,206.15 122.3,196.29 129.4,196.29 129.4,183.63 133.3,183.63 133.3,178.22 145.59,178.22 145.59,165.93 150.28,165.93 150.28,161.38 163.04,161.38 163.04,150.78 169.67,150.78 169.67,145.67 181.45,145.67 181.45,136.91 189.85,136.91 189.85,127.25 197.58,127.25 197.58,116.18 204.4,116.18 204.4,112.85 217.17,112.85 217.17,105.37 226.77,105.37 226.77,99.96 237.76,99.96 237.76,90.85 246.36,90.85 246.36,88.07 258.87,88.07 258.87,79.54 267.97,79.54 267.97,72.99 278.28,72.99 278.28,65.6 288.24,65.6 288.24,66.75 302.22,66.75 302.22,61.88 313.26,61.88 313.26,56.65 324.16,56.65 324.16,52.69 335.58,52.69 335.58,45.58 345.92,45.58 345.92,42.97 357.83,42.97 357.83,40.96 369.87,40.96 369.87,36.76 381.27,36.76 381.27,30.93 392.36,30.93 392.36,29.65 404.54,29.65 404.54,26.78 416.38,26.78 416.38,23.19 428.15,23.19 428.15,27.81 441.04,27.81 441.04,22.45 452.62,22.45 452.62,22.18 464.79,22.18 464.79,18.29 476.75,18.29 476.75,17.32 488.95,17.32 488.95,19.48 501.18,19.48 501.18,22.55 513.27,22.55 513.27,17.3 525.66,17.3 525.66,16.7 537.99,16.7 537.99,25.21 549.45,25.21 549.45,19.9 562.34,19.9 562.34,29.55 573.25,29.55 573.25,28.2 585.75,28.2 585.75,33.21 597.12,33.21 597.12,30.24 610.22,30.24 610.22,39.06 620.55,39.06 620.55,37.23 633.64,37.23 633.64,42.03 644.92,42.03 644.92,44.4 656.97,44.4 656.97,48.55 668.45,48.55 668.45,54.02 679.41,54.02 679.41,59.22 690.43,59.22 690.43,67.13 700.17,67.13 700.17,71.02 711.72,71.02 711.72,73.17 724.29,73.17 724.29,78.69 735.19,78.69 735.19,87.52 744.17,87.52 744.17,91.49 756.01,91.49 756.01,103.03 763.01,103.03 763.01,102.74 777.94,102.74 777.94,113.84 785.02,113.84 785.02,122.52 793.67,122.52 793.67,128.63 804.32,128.63 804.32,140.15 810.45,140.15 810.45,141.53 825.46,141.53 825.46,152.77 831.69,152.77 831.69,163.71 837.94,163.71 837.94,171.0 847.8,171.0 847.8,180.19 855.72,180.19 855.72,186.02 867.55,186.02 867.55,198.67 871.4,198.67 871.4,204.14 884.16,204.14 884.16,215.66 889.2,215.66 889.2,224.38 898.07,224.38 898.07,236.92 901.31,236.92 901.31,246.38 909.12,246.38 909.12,258.75 912.12,258.75 912.12,266.72 922.72,266.72 922.72,280.23 923.24,280.23 923.24,291.01 928.7,291.01 928.7,301.44 934.94,301.44 934.94,310.85 943.75,310.85 943.75,321.67 949.62,321.67 949.62,335.82 946.64,335.82 946.64,345.5 955.63,345.5 955.63,356.84 960.22,356.84 960.22,368.79 962.85,368.79 962.85,380.51 966.21,380.51 966.21,391.61 972.32,391.61 972.32,404.76 969.26,404.76 969.26,416.98 969.82,416.98 969.82,427.94 978.2,427.94 978.2,440.53 976.27,440.53 976.27,453.02 973.46,453.02 973.46,464.59 980.49,464.59 980.49,477.1 974.53,477.1 974.53,488.9 984.62,488.9 984.62,501.17" style="fill:green;stroke:red;" />
<rect width="895.65" height="176.18" x="53.01" y="501.1" style="fill:blue;" />
<rect width="905.96" height="130.46" x="42.7" y="356.11" style="fill:blue;" />

</svg>
